<svg xmlns="http://www.w3.org/2000/svg" viewBox="-42 -958 1330 1243">
  <g transform="scale(1,-1)" fill="#064232">
    <path d="M652 540Q577 539 514.0 512.5Q451 486 413.5 443.5Q376 401 376 350Q376 307 404.5 268.0Q433 229 491.5 204.5Q550 180 640 180Q730 180 800.5 203.5Q871 227 920.0 267.0Q969 307 995.0 359.0Q1021 411 1021 468Q1021 532 989.0 580.0Q957 628 902.5 659.5Q848 691 778.0 707.0Q708 723 632 723Q506 723 402.0 693.5Q298 664 217.5 612.5Q137 561 81.5 493.0Q26 425 -2.5 347.5Q-31 270 -31 190Q-31 104 3.5 21.5Q38 -61 108.0 -128.0Q178 -195 285.5 -235.0Q393 -275 539 -275Q593 -275 654.5 -266.0Q716 -257 778.5 -238.5Q841 -220 897.0 -192.0Q953 -164 996 -125L1004 -133Q962 -171 906.0 -199.5Q850 -228 787.0 -247.0Q724 -266 660.5 -275.5Q597 -285 539 -285Q391 -285 281.5 -244.0Q172 -203 100.0 -134.0Q28 -65 -7.0 19.5Q-42 104 -42 192Q-42 274 -12.5 352.5Q17 431 73.5 500.0Q130 569 212.0 621.0Q294 673 399.5 703.0Q505 733 632 733Q709 733 780.0 716.5Q851 700 908.0 667.0Q965 634 998.0 584.5Q1031 535 1031 468Q1031 410 1004.5 356.0Q978 302 927.0 260.0Q876 218 804.0 193.5Q732 169 640 169Q545 169 484.5 195.0Q424 221 395.0 262.5Q366 304 366 350Q366 404 405.0 449.0Q444 494 509.0 521.5Q574 549 652 550Q706 550 738.5 536.5Q771 523 785.5 503.0Q800 483 800 463Q800 435 773.0 404.5Q746 374 693.5 353.5Q641 333 562 333Q507 333 454.0 350.0Q401 367 358.0 398.5Q315 430 290.0 475.0Q265 520 265 575Q265 643 303.0 710.5Q341 778 413.0 834.0Q485 890 587.0 924.0Q689 958 816 958Q932 958 1020.0 927.0Q1108 896 1167.5 844.0Q1227 792 1257.5 728.0Q1288 664 1288 597Q1288 548 1269.5 500.0Q1251 452 1214.5 412.5Q1178 373 1124.5 349.0Q1071 325 1001 325Q969 325 948.5 334.0Q928 343 928 358Q928 371 939.5 378.5Q951 386 970 386Q1006 386 1031.5 366.5Q1057 347 1070.0 316.5Q1083 286 1083 251Q1083 204 1054.5 154.0Q1026 104 970.0 60.5Q914 17 833.0 -9.5Q752 -36 647 -36Q580 -36 522.0 -21.0Q464 -6 413.5 14.0Q363 34 319.0 49.0Q275 64 236 64Q206 64 190.0 55.5Q174 47 174 30Q174 -14 277 -14Q365 -14 435.0 13.0Q505 40 568.0 91.0Q631 142 699.0 214.0Q767 286 849.5 375.5Q932 465 1042 568Q1077 603 1111.5 630.0Q1146 657 1180 676H1231Q1193 664 1142.0 632.0Q1091 600 1050 560Q996 505 950.0 439.5Q904 374 860.0 306.0Q816 238 768.5 176.0Q721 114 664.5 64.5Q608 15 536.5 -14.0Q465 -43 372 -43Q302 -43 256.0 -35.5Q210 -28 187.0 -12.5Q164 3 164 28Q164 51 181.5 63.0Q199 75 232 75Q272 75 318.0 59.5Q364 44 416.0 24.5Q468 5 526.0 -10.5Q584 -26 647 -26Q736 -26 811.5 3.0Q887 32 943.0 77.5Q999 123 1030.0 174.0Q1061 225 1061 269Q1061 294 1052.5 318.5Q1044 343 1025.5 359.5Q1007 376 975 376Q960 376 950.0 370.5Q940 365 940 356Q940 346 956.5 340.0Q973 334 1001 334Q1068 334 1119.5 357.0Q1171 380 1206.0 418.5Q1241 457 1259.0 503.5Q1277 550 1277 597Q1277 662 1247.5 724.5Q1218 787 1159.5 837.5Q1101 888 1014.5 918.0Q928 948 814 948Q696 948 597.0 915.5Q498 883 426.0 829.0Q354 775 314.5 709.5Q275 644 275 577Q275 522 299.5 478.5Q324 435 365.0 405.0Q406 375 457.0 359.0Q508 343 562 343Q638 343 688.5 362.0Q739 381 764.5 409.0Q790 437 790 463Q790 481 776.5 498.5Q763 516 733.0 528.0Q703 540 652 540Z"/>
  </g>
</svg>